<svg xmlns="http://www.w3.org/2000/svg" xmlns:xlink="http://www.w3.org/1999/xlink" width="128" height="128" viewBox="0 0 128 128"><radialGradient id="a" cx="64.496" cy="47.267" r="60" gradientUnits="userSpaceOnUse"><stop offset="0" stop-color="#f6f5f4"/><stop offset="1" stop-color="#deddda"/></radialGradient><linearGradient id="b" x1="64" x2="64" y1="64" y2="48" gradientUnits="userSpaceOnUse"><stop offset="0" stop-color="#c0bfbc"/><stop offset="1" stop-color="#9a9996"/></linearGradient><linearGradient id="c" gradientUnits="userSpaceOnUse"><stop offset="0" stop-color="#e01b24"/><stop offset=".536" stop-color="#a51d2d"/><stop offset="1" stop-color="#241f31"/></linearGradient><radialGradient id="d" cx="34.313" cy="64" r="13.818" xlink:href="#c"/><linearGradient id="e" gradientUnits="userSpaceOnUse"><stop offset="0" stop-color="#f5c211"/><stop offset=".529" stop-color="#f0a014"/><stop offset="1" stop-color="#e01b24"/></linearGradient><radialGradient id="f" cx="34.313" cy="64" r="1.852" xlink:href="#e"/><radialGradient id="g" cx="94.313" cy="64" r="13.818" xlink:href="#c"/><radialGradient id="h" cx="94.313" cy="64" r="1.852" xlink:href="#e"/><path fill="#d5d3cf" d="m 64.496094 8 c 30.929687 0 56 25.070312 56 56 v 2 c 0 30.929688 -25.070313 56 -56 56 c -30.929688 0 -56 -25.070312 -56 -56 v -2 c 0 -30.929688 25.070312 -56 56 -56 z m 0 0"/><path fill="url(#a)" d="m 124.496094 64 c 0 33.136719 -26.863282 60 -60 60 c -33.136719 0 -60 -26.863281 -60 -60 s 26.863281 -60 60 -60 c 33.136718 0 60 26.863281 60 60 z m 0 0"/><path fill="url(#b)" d="m 33.914062 45.664062 h 60.167969 c 9.898438 0 17.917969 8.023438 17.917969 17.917969 s -8.019531 17.917969 -17.917969 17.917969 h -60.167969 c -9.894531 0 -17.914062 -8.023438 -17.914062 -17.917969 s 8.019531 -17.917969 17.914062 -17.917969 z m 0 0"/><path fill="#d5d3cf" d="m 4.53125 63.984375 c -0.023438 0.671875 -0.035156 1.34375 -0.035156 2.015625 c 0 33.136719 26.863281 60 60 60 c 33.136718 0 60 -26.863281 60 -60 c 0 -0.660156 -0.011719 -1.324219 -0.035156 -1.984375 c -1.085938 32.335937 -27.613282 57.984375 -59.964844 57.984375 c -32.363282 0 -58.894532 -25.667969 -59.964844 -58.015625 z m 0 0"/><path fill="url(#d)" d="m 48.132812 64 c 0 7.632812 -6.1875 13.816406 -13.820312 13.816406 c -7.628906 0 -13.816406 -6.183594 -13.816406 -13.816406 s 6.1875 -13.820312 13.816406 -13.820312 c 7.632812 0 13.820312 6.1875 13.820312 13.820312 z m 0 0"/><path d="m 40 64 c 0 3.140625 -2.546875 5.6875 -5.6875 5.6875 s -5.6875 -2.546875 -5.6875 -5.6875 s 2.546875 -5.6875 5.6875 -5.6875 s 5.6875 2.546875 5.6875 5.6875 z m 0 0"/><path fill="url(#f)" d="m 37 64 c 0 1.484375 -1.203125 2.6875 -2.6875 2.6875 s -2.6875 -1.203125 -2.6875 -2.6875 s 1.203125 -2.6875 2.6875 -2.6875 s 2.6875 1.203125 2.6875 2.6875 z m 0 0"/><path fill="#fff" d="m 37.5 58.5 c 0 1.933594 -1.566406 3.5 -3.5 3.5 s -3.5 -1.566406 -3.5 -3.5 s 1.566406 -3.5 3.5 -3.5 s 3.5 1.566406 3.5 3.5 z m 0 0"/><path fill="url(#g)" d="m 108.132812 64 c 0 7.632812 -6.1875 13.816406 -13.820312 13.816406 c -7.628906 0 -13.816406 -6.183594 -13.816406 -13.816406 s 6.1875 -13.820312 13.816406 -13.820312 c 7.632812 0 13.820312 6.1875 13.820312 13.820312 z m 0 0"/><path d="m 100 64 c 0 3.140625 -2.546875 5.6875 -5.6875 5.6875 s -5.6875 -2.546875 -5.6875 -5.6875 s 2.546875 -5.6875 5.6875 -5.6875 s 5.6875 2.546875 5.6875 5.6875 z m 0 0"/><path fill="url(#h)" d="m 97 64 c 0 1.484375 -1.203125 2.6875 -2.6875 2.6875 s -2.6875 -1.203125 -2.6875 -2.6875 s 1.203125 -2.6875 2.6875 -2.6875 s 2.6875 1.203125 2.6875 2.6875 z m 0 0"/><path fill="#fff" d="m 97.5 58.5 c 0 1.933594 -1.566406 3.5 -3.5 3.5 s -3.5 -1.566406 -3.5 -3.5 s 1.566406 -3.5 3.5 -3.5 s 3.5 1.566406 3.5 3.5 z m 0 0"/></svg>